<svg version="1.2" xmlns="http://www.w3.org/2000/svg" viewBox="0 0 1408 768" width="1408" height="768">
	<style>
		.s0 { fill: #fefefe } 
		.s1 { fill: #3f3f3f } 
		.s2 { fill: #c0f45d } 
		.s3 { fill: #c9cdc5 } 
		.s4 { fill: #d2f692 } 
		.s5 { fill: #f3f2d4 } 
		.s6 { fill: #9d9d9d } 
		.s7 { fill: #747474 } 
	</style>
	<g id="Background">
		<path id="Path 0" class="s0" d="m0 384v384h1408v-768h-1408z"/>
		<path id="Path 1" class="s1" d="m408.5 283.38c-3.85 0.73-9.25 2.49-12 3.89-2.75 1.41-6.67 4.28-8.7 6.39-2.04 2.11-4.6 5.86-5.69 8.34-1.09 2.48-2.46 7.43-3.04 11-0.58 3.57-1.06 9.31-1.06 12.75l-0.01 6.25-33.5 0.5v25l33.5 0.5v71h-31l0.5 25.5h102v-25l-36.5-0.5v-71c29.84-0.02 39.07-0.36 39.76-0.77 0.92-0.53 1.18-3.93 1-12.73l-0.26-12-40.5-0.5c0.04-11.05 0.7-14.95 1.84-17.5 1.27-2.82 2.95-4.56 5.73-5.89 3.45-1.65 5.77-1.84 18.93-1.5l15 0.39 0.59-23c-5.88-1.16-14.79-1.71-23.59-1.98-11.12-0.34-18.14-0.08-23 0.86zm631.11 1.1c-0.34 0.83-0.61 39.32-0.61 85.52v84c3.49 0.83 11.25 0.94 19.5 0.79l15-0.29c0.97-81.44 1.12-84.24 3-87.99 1.1-2.19 3.58-5.02 5.5-6.29 1.92-1.27 5.08-2.73 7-3.26 1.92-0.52 5.75-0.94 8.5-0.94 3.18 0.01 6.61 0.82 9.41 2.24 2.42 1.23 5.17 3.37 6.1 4.74 0.92 1.38 2.3 4.07 3.06 6 1.04 2.68 1.49 13.16 1.9 44.5l0.53 41h34c0-85.98-0.05-87.19-2.31-95-1.27-4.4-3.75-10.22-5.5-12.94-1.76-2.72-5.22-6.56-7.69-8.54-2.47-1.98-7.2-4.67-10.5-5.98-4.83-1.91-7.86-2.37-15.5-2.37-7.61 0-10.69 0.47-15.5 2.36-3.3 1.29-7.76 3.95-9.92 5.91-2.16 1.96-5.65 6.26-7.77 9.56l-3.85 6-0.46-70c-30.79-0.51-33.37-0.32-33.89 0.98zm-515.11 45.99c-3.85 0.72-9.48 2.26-12.5 3.44-3.02 1.18-7.71 3.59-10.41 5.36-2.7 1.78-7.14 5.71-9.85 8.73-2.72 3.02-6.24 8.2-7.82 11.5-1.59 3.3-3.68 8.93-4.64 12.5-1.3 4.79-1.76 10.32-1.76 21 0 12.06 0.37 15.8 2.24 22.25 1.23 4.26 3.65 10.56 5.38 14 2 3.99 5.52 8.55 9.75 12.6 3.88 3.73 9.09 7.51 12.61 9.17 3.3 1.55 8.92 3.57 12.5 4.49 4.33 1.12 10.35 1.66 18 1.63 8.81-0.03 13.14-0.55 18.5-2.19 3.85-1.18 9.7-3.56 12.99-5.3 3.29-1.73 8.47-5.66 11.5-8.72 3.23-3.26 7.08-8.64 9.3-13 2.43-4.77 4.52-11.01 5.85-17.43 1.67-8.07 1.96-12.12 1.5-21-0.31-6.05-1.41-14.15-2.44-18-1.02-3.85-3.18-9.69-4.78-12.99-1.71-3.51-5.61-8.72-9.42-12.59-4.57-4.65-8.73-7.7-14-10.28-4.12-2.01-10.99-4.34-15.25-5.15-4.26-0.82-10.56-1.45-14-1.4-3.44 0.05-9.4 0.67-13.25 1.38zm276.5-0.35c-3.58 0.55-9.2 1.93-12.5 3.05-3.3 1.13-8.25 3.49-11 5.26-2.75 1.76-6.7 5.2-8.78 7.64-2.07 2.44-4.53 6.68-5.46 9.43-1.04 3.09-1.67 8.05-1.65 13 0.02 4.4 0.63 9.8 1.35 12 0.72 2.2 2.76 6.02 4.53 8.5 1.77 2.48 5.53 5.96 8.36 7.75 2.83 1.79 7.29 3.98 9.9 4.88 2.61 0.9 13.08 3.08 23.25 4.84 12.24 2.13 19.46 3.86 21.33 5.12 1.57 1.06 3.28 3.46 3.85 5.41 0.77 2.65 0.67 4.35-0.4 7-0.97 2.38-2.68 4.12-5.35 5.44-2.63 1.29-6.73 2.07-12.43 2.34-5.72 0.28-10.79-0.13-15.5-1.24-3.85-0.91-9.25-2.79-12-4.17-2.75-1.38-7.14-4.28-9.75-6.44l-4.75-3.93c-12.54 12.01-16.65 16.4-17.23 17.5-0.91 1.72-0.3 2.69 4.37 7 2.98 2.75 8.11 6.43 11.39 8.18 3.28 1.74 9.35 4.13 13.47 5.3 4.53 1.28 12.45 2.42 20 2.87 6.88 0.42 15.88 0.39 20-0.05 4.13-0.44 10.65-1.74 14.5-2.88 3.85-1.15 9.21-3.51 11.92-5.25 2.7-1.75 6.67-5.19 8.81-7.67 2.67-3.08 4.56-6.71 5.98-11.5 1.59-5.37 1.97-8.86 1.65-15-0.32-5.91-1.12-9.44-3.05-13.5-1.47-3.1-4.51-7.15-6.96-9.28-2.39-2.08-7.61-5.12-11.6-6.75-4.71-1.93-13.47-4.05-25-6.06-9.76-1.7-19.44-3.95-21.5-5-2.74-1.39-4.02-2.86-4.75-5.41-0.73-2.54-0.66-4.23 0.25-6.16 0.69-1.46 2.38-3.49 3.75-4.5 1.38-1.01 5.2-2.32 8.5-2.92 4.46-0.82 8.05-0.79 14 0.11 4.4 0.66 10.02 2.08 12.5 3.16 2.48 1.08 6.75 3.57 9.5 5.53l5 3.57c12.79-13.4 16.52-17.85 16.55-18.54 0.02-0.69-1.89-2.87-4.25-4.85-2.37-1.99-7-5.01-10.3-6.73-3.3-1.71-9.6-4.05-14-5.18-4.77-1.23-12.45-2.23-19-2.47-6.05-0.23-13.92 0.04-17.5 0.6zm148-0.47c-1.38 0.2-5.2 0.85-8.5 1.44-3.3 0.58-9.15 2.56-13 4.4-3.85 1.83-9.22 5.29-11.93 7.67-2.72 2.39-6.68 7.04-8.8 10.34-2.13 3.3-5.02 9.6-6.42 14-2.03 6.34-2.67 10.8-3.09 21.5-0.41 10.27-0.13 15.53 1.13 22 0.97 4.98 3.27 11.82 5.54 16.5 2.96 6.11 5.49 9.54 10.72 14.51 3.77 3.58 9.1 7.57 11.85 8.87 2.75 1.29 8.38 3.2 12.5 4.24 5.13 1.3 10.98 1.9 18.5 1.9 6.6-0.01 13.4-0.62 17-1.55 3.3-0.84 8.25-2.6 11-3.91 2.75-1.31 7.48-4.59 10.5-7.3 3.84-3.44 6.78-7.39 9.75-13.09 2.34-4.49 4.26-8.73 4.27-9.42 0.01-0.7-5.63-3.32-12.75-5.92-7.02-2.57-13.44-4.96-14.27-5.31-1.08-0.46-2.01 0.56-3.32 3.67-1 2.37-3.02 6.05-4.5 8.18-1.47 2.13-4.48 4.78-6.68 5.88-2.2 1.11-6.48 2.25-9.5 2.55-3.72 0.37-6.96 0.02-10-1.06-2.76-0.98-6.05-3.3-8.5-6-2.67-2.94-4.66-6.53-6-10.82-1.58-5.09-2-9.23-2-19.92 0-10.7 0.41-14.83 2-19.89 1.1-3.52 3.46-8.13 5.25-10.25 1.84-2.18 5.1-4.55 7.5-5.45 2.85-1.06 6.58-1.47 11.32-1.25 5.68 0.27 7.89 0.88 11.25 3.09 2.94 1.94 4.88 4.3 6.56 8 1.3 2.89 2.65 6.04 3 7 0.56 1.58 2.1 1.23 15.62-3.5 8.25-2.89 15.01-5.7 15.02-6.25 0.02-0.55-1.64-4.37-3.69-8.5-2.05-4.12-5.77-9.55-8.28-12.06-2.55-2.56-7.85-6.18-12.05-8.24-4.99-2.44-10.52-4.18-16.5-5.2-4.95-0.83-11.02-1.45-13.5-1.37-2.48 0.08-5.62 0.31-7 0.52zm-234 1.88c-3.58 0.83-8.3 2.57-10.5 3.87-2.2 1.29-5.69 4.21-7.75 6.48-2.06 2.27-4.59 5.81-5.61 7.87-1.03 2.06-2.69 6.23-3.71 9.25-1.78 5.34-1.86 5.42-2.51 2.5-0.38-1.65-0.74-8.96-0.8-16.25l-0.12-13.25c-51.42 0-58.9 0.31-59.82 1.25-0.8 0.82-1.21 4.86-1.21 11.75 0 7.14 0.4 10.91 1.26 11.77 0.89 0.88 4.95 1.26 13.52 1.25l12.25-0.02v71c-25.65 0-26.01 0.06-26.54 2.25-0.3 1.24-0.41 6.98-0.25 12.75l0.29 10.5 99.5 0.5c0.84-3.49 0.95-9.23 0.79-15l-0.29-10.5-38.5-0.5c0.48-47.22 0.68-49.86 2.5-53.45 1.1-2.17 3.8-5.23 6-6.81 2.2-1.57 6.48-3.61 9.5-4.53 4.23-1.3 8.68-1.63 19.25-1.45l13.75 0.24c0.73-8.14 1.18-15.11 1.47-20.75 0.33-6.38 0.15-10.44-0.47-10.75-0.55-0.27-4.26-0.72-8.25-0.98-4.58-0.31-9.65 0.06-13.75 1.01z"/>
		<path id="Path 2" class="s2" d="m124.57 316.25c-0.32 0.77-0.46 5.56-0.32 10.64l0.25 9.25c56.57 30.2 74.01 39.62 75.25 40.41 1.24 0.8 2.25 1.79 2.24 2.2 0 0.41-1.46 1.59-3.25 2.61-1.78 1.02-10.44 5.69-19.24 10.38-8.8 4.69-23.65 12.58-33 17.54-9.35 4.95-18.24 9.84-19.75 10.86-2.69 1.82-2.75 2.07-2.75 11.86 0 6 0.4 10 1 10 0.55 0 7.41-3.44 15.25-7.64 7.84-4.2 22.8-12.24 33.25-17.86 10.45-5.63 23.28-12.51 28.5-15.31 5.22-2.79 12.65-6.8 16.5-8.9l7-3.83c0.55-16.42 0.28-19.26-0.68-20.08-0.73-0.61-3.79-2.47-6.82-4.12-3.03-1.65-13.37-7.16-23-12.24-9.62-5.08-18.85-10.03-20.5-10.99-1.65-0.97-6.82-3.78-11.5-6.25-4.68-2.47-15.1-7.96-23.17-12.21-11.14-5.86-14.81-7.38-15.26-6.32zm1057.93 153.42c-0.46 0.36-0.76 4.19-0.67 8.5l0.17 7.83h109c0.42-8.14 0.39-11.62 0.2-13-0.32-2.39-0.72-2.53-9.52-3.25-5.05-0.42-29.24-0.76-53.76-0.75-24.52 0-44.96 0.3-45.42 0.67z"/>
		<path id="Path 3" class="s3" d="m1074.39 310.5c0 7.15 0.16 9.85 0.35 6 0.19-3.85 0.19-9.7 0-13-0.2-3.3-0.35-0.15-0.35 7zm-646.89-2.78c1.65 0.22 4.8 0.22 7 0.01 2.2-0.22 0.85-0.4-3-0.4-3.85-0.01-5.65 0.17-4 0.39zm646.95 105.78c0 20.9 0.14 29.68 0.3 19.5 0.16-10.18 0.16-27.27 0-38-0.16-10.73-0.3-2.4-0.3 18.5zm42.77 2.75c-0.12 20.76 0.12 37.93 0.53 38.16 0.41 0.22 0.64-10.69 0.5-24.25-0.14-13.56-0.38-30.73-0.53-38.16-0.16-7.43-0.38 3.49-0.5 24.25zm-761.72 12.49c4.4 0.19 11.15 0.19 15 0 3.85-0.19 0.25-0.34-8-0.34-8.25 0-11.4 0.16-7 0.34zm66.5 0c4.67 0.19 12.55 0.19 17.5 0 4.95-0.18 1.12-0.33-8.5-0.33-9.63 0-13.68 0.15-9 0.33zm209 0c3.57 0.2 8.97 0.19 12 0 3.02-0.2 0.1-0.36-6.5-0.36-6.6 0-9.08 0.17-5.5 0.36zm63.5 0.01c4.95 0.18 13.27 0.18 18.5 0 5.22-0.19 1.17-0.33-9-0.33-10.18 0-14.45 0.14-9.5 0.33z"/>
		<path id="Path 4" fill-rule="evenodd" class="s4" d="m152.02 351.49c-0.01 0.28 3.13 2.08 6.98 4.01 3.85 1.93 7.01 3.28 7.02 3.01 0.01-0.27-3.13-2.07-6.98-4.01-3.85-1.94-7.01-3.29-7.02-3.01zm1132.86 118.25c6.12 0.34 6.39 0.46 6.6 3.06 0.17 2.12 0.25 2.01 0.37-0.55l0.15-3.25-13.5 0.39zm6.29 11.51l-0.17 4.75-109.5 0.51c97.78 0.43 109.62 0.22 110.04-0.76 0.3-0.69 0.38-3.05 0.17-5.25-0.37-3.93-0.38-3.92-0.54 0.75z"/>
		<path id="Path 5" class="s5" d="m123.22 325.25l-0.22 11.75c7.75 3.88 9.83 4.66 9.62 4.25-0.21-0.41-2.24-1.65-4.51-2.75l-4.12-2-0.56-23zm96.94 39.16c-0.08 0.32 1.2 1.27 2.85 2.09l3 1.5v21c-6.2 3.1-8 4.23-8 4.5 0 0.27 1.91-0.52 4.25-1.77l4.25-2.27v-21.85c-4.8-2.94-6.26-3.53-6.35-3.2zm-24.65 11.02c1.1 0.88 2.45 1.76 3 1.94 0.55 0.19 0.1 1.4-1 2.7l-2 2.36c3.87-2.46 5-3.54 5-4 0-0.45-1.58-1.67-3.5-2.71-2.4-1.3-2.87-1.39-1.5-0.29zm-71.04 44.4c-1.57 1.57-1.8 3.34-1.65 12.5 0.1 5.87 0.52 10.85 0.94 11.08 0.41 0.22 0.61-4.62 0.45-10.75-0.29-10.65-0.19-11.24 2-12.89 1.26-0.95 1.8-1.74 1.19-1.75-0.6-0.01-1.92 0.8-2.93 1.81zm1056.98 49.5c-0.27 0.74-0.38 5.12-0.22 9.75l0.28 8.42c96.36 0.4 109.3 0.16 110.29-0.78 0.89-0.84 1.22-3.71 1.06-9.22l-0.23-8-1.12 17-109.5 0.5v-18l110.5-0.52c-100.6-0.44-110.65-0.24-111.06 0.85z"/>
		<path id="Path 6" class="s6" d="m453.5 345c0 7.04 0.34 12.63 0.75 12.4 0.41-0.22 0.8-5.77 0.85-12.34 0.06-6.57-0.28-12.15-0.75-12.41-0.47-0.25-0.85 5.31-0.85 12.35zm-110.12-0.5c0 6.6 0.17 9.07 0.36 5.5 0.2-3.57 0.19-8.98 0-12-0.2-3.02-0.36-0.1-0.36 6.5zm340.99-1.5c0 5.77 0.17 8.02 0.37 5 0.2-3.02 0.2-7.75 0-10.5-0.2-2.75-0.37-0.27-0.37 5.5zm-270.92 50.5c0 19.8 0.13 28.13 0.3 18.5 0.16-9.63 0.16-25.82 0-36-0.16-10.18-0.3-2.3-0.3 17.5zm271.98 12.5c0 12.93 0.14 18.1 0.32 11.5 0.17-6.6 0.17-17.18 0-23.5-0.18-6.32-0.32-0.93-0.32 12zm210.91-13c0 4.13 0.17 5.93 0.39 4 0.21-1.93 0.21-5.3 0-7.5-0.22-2.2-0.39-0.63-0.39 3.5zm-445.95 49c0 6.88 0.16 9.57 0.35 6 0.2-3.57 0.2-9.2 0-12.5-0.19-3.3-0.35-0.38-0.35 6.5z"/>
		<path id="Path 7" class="s7" d="m346.17 441.75c-0.09 6.74 0.17 12.43 0.58 12.66 0.41 0.22 0.63-3.49 0.48-8.25-0.14-4.76-0.4-10.46-0.57-12.66-0.17-2.2-0.39 1.51-0.49 8.25z"/>
		<path id="Path 8" class="s0" d="m529 357.51c-2.48 0.76-6.08 2.92-8 4.81-2.15 2.1-4.27 5.7-5.5 9.3-1.7 5-1.99 8.36-1.91 22.38 0.06 13.04 0.44 17.44 1.8 21 0.95 2.48 2.93 6.05 4.42 7.94 1.48 1.89 4.49 4.25 6.69 5.23 2.63 1.17 6.49 1.79 11.25 1.81 5.28 0.01 8.33-0.52 11.25-1.98 2.52-1.26 5.11-3.76 6.99-6.75 1.65-2.61 3.56-7 4.25-9.75 0.72-2.86 1.25-10.98 1.23-19-0.01-10.61-0.46-15.45-1.84-20-1.33-4.38-2.94-7.08-5.97-10.01-2.29-2.2-5.96-4.56-8.16-5.23-2.2-0.68-5.8-1.2-8-1.17-2.2 0.03-6.02 0.67-8.5 1.42z"/>
		<path id="Path 9" class="s7" d="m512.36 393c0 5.23 0.17 7.25 0.38 4.5 0.2-2.75 0.2-7.02 0-9.5-0.21-2.48-0.38-0.23-0.38 5z"/>
	</g>
</svg>