<?xml version="1.0" encoding="UTF-8"?>
<svg width="854px" height="150px" viewBox="0 0 854 150" version="1.1" xmlns="http://www.w3.org/2000/svg" xmlns:xlink="http://www.w3.org/1999/xlink">
    <title>forsch</title>
    <g id="Page-1" stroke="none" stroke-width="1" fill="none" fill-rule="evenodd">
        <g id="Artboard" transform="translate(-89, -206)">
            <g id="forsch" transform="translate(89.4697, 206.1299)">
                <path d="M208.201418,0.730682084 C205.395949,1.26262776 201.461006,2.54512693 199.457099,3.56529672 C197.453193,4.59275344 194.596716,6.68410151 193.117469,8.22164313 C191.630935,9.75918474 189.76548,12.4917824 188.971204,14.2989403 C188.176929,16.1060982 187.178619,19.7131271 186.755977,22.3145601 C186.333335,24.9159931 185.983562,29.0986892 185.983562,31.6053921 L185.976275,36.1597216 L161.565054,36.5240679 L161.565054,54.7413856 L185.976275,55.105732 L185.976275,106.842914 L163.386787,106.842914 L163.751133,125.424578 L238.077838,125.424578 L238.077838,107.207261 L211.480537,106.842914 L211.480537,55.105732 C233.224741,55.0911581 239.950579,54.8434026 240.453378,54.5446386 C241.123775,54.1584315 241.313236,51.6808763 241.182071,45.2683804 L240.992611,36.5240679 L211.480537,36.1597216 C211.509685,28.1076671 211.990622,25.2657656 212.821332,23.4075992 C213.746773,21.3526857 214.970977,20.0847604 216.996744,19.1155991 C219.510736,17.9132561 221.201304,17.7748045 230.790906,18.0225601 L241.721304,18.3067502 L242.151233,1.54681792 C237.866517,0.701534375 231.373861,0.300753386 224.961361,0.104006355 C216.858293,-0.143749166 211.742866,0.0457109379 208.201418,0.730682084 L208.201418,0.730682084 Z M668.086971,1.53224406 C667.839216,2.13705901 667.642469,30.1844414 667.642469,63.8500445 L667.642469,125.060232 C670.185608,125.665047 675.840267,125.745203 681.851986,125.635899 L692.782383,125.424578 C693.489216,66.0798442 693.59852,64.0395046 694.968463,61.3069069 C695.770025,59.7110699 697.577185,57.6488695 698.976275,56.7234298 C700.375366,55.7979901 702.678037,54.7340987 704.077128,54.3478916 C705.476219,53.9689714 708.267114,53.6629204 710.27102,53.6629204 C712.588264,53.6702073 715.087682,54.2604484 717.128023,55.2951921 C718.89146,56.1914841 720.895366,57.7508865 721.573051,58.7491955 C722.243449,59.7547915 723.249045,61.7149748 723.802852,63.1213518 C724.560693,65.0742482 724.888605,72.7109478 725.187369,95.5481773 L725.573577,125.424578 L750.349145,125.424578 C750.349145,62.7715793 750.31271,61.8898611 748.665864,56.198771 C747.740423,52.9925231 745.933264,48.7515316 744.658051,46.7694874 C743.375551,44.7874432 740.854273,41.9892632 739.0544,40.5464517 C737.254528,39.1036401 733.80781,37.1434567 731.403122,36.1888693 C727.883534,34.7970662 725.675594,34.4618676 720.108378,34.4618676 C714.563023,34.4618676 712.318648,34.8043531 708.813633,36.1815823 C706.408946,37.1215959 703.158974,39.0599185 701.584997,40.4881563 C700.01102,41.916394 697.467881,45.0497726 695.923051,47.4544585 L693.117582,51.8266148 L692.782383,0.818125209 C670.34592,0.446491927 668.465892,0.584943542 668.086971,1.53224406 Z M292.729827,35.0448217 C289.924358,35.5694805 285.821815,36.6916672 283.621162,37.5515246 C281.420508,38.411382 278.002937,40.1675315 276.035466,41.4573176 C274.067994,42.7543906 270.832596,45.6181529 268.857838,47.8188049 C266.875793,50.0194569 264.310793,53.7940851 263.159457,56.198771 C262.000835,58.603457 260.477866,62.7059969 259.778321,65.3074299 C258.83102,68.797868 258.495821,72.8275386 258.495821,80.6099768 C258.495821,89.3980108 258.765437,92.1233216 260.128094,96.8233895 C261.024386,99.9276205 262.787824,104.518385 264.048463,107.025087 C265.505849,109.932571 268.070849,113.25541 271.153221,116.206616 C273.980551,118.924639 277.777043,121.679098 280.342043,122.888728 C282.74673,124.018201 286.841986,125.490161 289.450707,126.160558 C292.605949,126.976694 296.992682,127.370188 302.567185,127.34919 C308.986971,127.326466 312.142213,126.947546 316.048008,125.75249 C318.853477,124.892633 323.116332,123.158344 325.513733,121.890419 C327.911133,120.62978 331.685764,117.766018 333.893704,115.536218 C336.247383,113.16068 339.052852,109.240313 340.670551,106.063213 C342.441275,102.587349 343.964244,98.0403064 344.933406,93.3620992 C346.150324,87.481549 346.361645,84.5303435 346.026446,78.0595523 C345.800551,73.6509614 344.998989,67.7485505 344.248435,64.9430835 C343.505168,62.1376166 341.93119,57.8820512 340.765281,55.4773653 C339.519216,52.9196539 336.677312,49.1231648 333.900991,46.3031241 C330.570864,42.914703 327.5395,40.6921902 323.699287,38.812163 C320.697071,37.3474907 315.690949,35.6496367 312.586716,35.0593956 C309.482483,34.4618676 304.891716,34.0027911 302.385011,34.0392258 C299.878307,34.0756604 295.535295,34.5274499 292.729827,35.0448217 L292.729827,35.0448217 Z M494.213491,34.7897793 C491.60477,35.1905603 487.509514,36.1961562 485.104827,37.012292 C482.700139,37.8357148 479.093108,39.5554296 477.089202,40.8452157 C475.085295,42.1277148 472.206957,44.6344178 470.691275,46.412428 C469.182881,48.1904382 467.390295,51.2800953 466.712611,53.2840002 C465.95477,55.5356607 465.495693,59.1499765 465.510267,62.7570054 C465.524841,65.9632533 465.969344,69.898194 466.494003,71.5013179 C467.018662,73.1044419 468.505196,75.888048 469.794983,77.6952059 C471.08477,79.5023639 473.824656,82.0382145 475.886858,83.3425744 C477.94906,84.6469344 481.199031,86.2427714 483.10092,86.8985948 C485.00281,87.5544183 492.632227,89.1429684 500.043037,90.4254676 C508.962241,91.977583 514.223406,93.2382214 515.586062,94.1563742 C516.730111,94.9287885 517.976176,96.677651 518.391531,98.0986018 C518.952625,100.029637 518.879756,101.268415 518.100054,103.199451 C517.393221,104.933739 516.147156,106.201665 514.201545,107.163539 C512.285082,108.103553 509.29744,108.671933 505.143889,108.86868 C500.975764,109.072714 497.28129,108.77395 493.849145,107.965101 C491.043676,107.301991 487.108733,105.932048 485.104827,104.926452 C483.10092,103.920857 479.901957,101.807648 478.000068,100.233671 L474.538775,97.3699091 C465.400963,106.121508 462.406034,109.320469 461.983392,110.122031 C461.320281,111.375383 461.764784,112.082215 465.167781,115.22288 C467.339287,117.226785 471.077483,119.908375 473.467596,121.183587 C475.85771,122.451512 480.280878,124.193088 483.283094,125.045658 C486.584074,125.978385 492.355324,126.809094 497.856957,127.137006 C502.870366,127.443057 509.428605,127.421196 512.430821,127.100572 C515.440324,126.779947 520.191403,125.832646 522.996872,125.001937 C525.802341,124.16394 529.708136,122.444225 531.682895,121.1763 C533.650366,119.901088 536.543278,117.394385 538.102682,115.587227 C540.048293,113.342853 541.425523,110.697699 542.460267,107.207261 C543.618889,103.294181 543.895793,100.751043 543.662611,96.27687 C543.429429,91.9702961 542.846474,89.3980108 541.440096,86.4395184 C540.368918,84.180571 538.15369,81.2293656 536.368392,79.6772501 C534.626815,78.1615693 530.823037,75.9463434 527.915551,74.7585743 C524.483406,73.3521974 518.100054,71.8073689 509.698221,70.3426965 C502.586176,69.1039189 495.532426,67.4643603 494.031318,66.699233 C492.034699,65.6863501 491.101971,64.6151718 490.570025,62.7570054 C490.038079,60.9061259 490.089088,59.6746353 490.752199,58.2682583 C491.254997,57.204367 492.486489,55.7251208 493.484798,54.9891411 C494.490395,54.2531615 497.274003,53.2985741 499.67869,52.8613584 C502.928662,52.2638304 505.54467,52.2856912 509.880395,52.9415146 C513.086645,53.4224518 517.1819,54.4571955 518.98906,55.2441836 C520.796219,56.0311717 523.907739,57.8456166 525.911645,59.2738543 L529.555111,61.8752872 C538.875096,52.1108049 541.593122,48.8681224 541.614983,48.3653244 C541.629557,47.8625265 540.237753,46.2739764 538.518037,44.8311648 C536.791034,43.3810663 533.417185,41.1804143 531.012497,39.9270629 C528.60781,38.6809983 524.017043,36.9758574 520.810793,36.1524346 C517.334926,35.2561426 511.738562,34.5274499 506.965622,34.3525636 C502.557028,34.1849643 496.822213,34.3817114 494.213491,34.7897793 L494.213491,34.7897793 Z M602.060082,34.4472937 C601.054486,34.5930322 598.270878,35.0666825 595.86619,35.4966112 C593.461503,35.919253 589.198648,37.3620645 586.393179,38.7028591 C583.58771,40.0363668 579.674628,42.5576435 577.699869,44.2919322 C575.717824,46.0335078 572.832199,49.4219289 571.287369,51.8266148 C569.735253,54.2313007 567.629329,58.8220648 566.609159,62.0283127 C565.129912,66.6482245 564.663548,69.898194 564.357497,77.6952059 C564.058733,85.1788801 564.262767,89.0118037 565.18092,93.7264455 C565.887753,97.3553352 567.563747,102.339593 569.217881,105.749875 C571.374812,110.202188 573.218406,112.701604 577.029471,116.323206 C579.776645,118.931926 583.660579,121.83941 585.664486,122.786711 C587.668392,123.726724 591.770935,125.118527 594.77315,125.876368 C598.511346,126.823668 602.774202,127.260884 608.253974,127.260884 C613.063349,127.253597 618.018463,126.809094 620.641758,126.13141 C623.046446,125.519308 626.653477,124.236809 628.657383,123.282222 C630.66129,122.327634 634.108008,119.937522 636.308662,117.962765 C639.106844,115.456062 641.249202,112.577726 643.41342,108.424177 C645.118562,105.152347 646.517653,102.06269 646.525071,101.559892 C646.532227,101.049807 642.422398,99.1406323 637.234102,97.2460313 C632.118676,95.373291 627.440466,93.6317155 626.83565,93.376673 C626.048662,93.0414744 625.370977,93.7847409 624.416389,96.0509753 C623.687696,97.777977 622.215736,100.459566 621.13727,102.011682 C620.066091,103.563797 617.872724,105.494833 616.269599,106.296395 C614.666474,107.105244 611.547668,107.935953 609.347014,108.154561 C606.636275,108.424177 604.27531,108.169135 602.060082,107.382147 C600.048889,106.668028 597.651489,104.977461 595.86619,103.009991 C593.920579,100.867634 592.47048,98.2516272 591.494031,95.1255355 C590.342696,91.4164896 590.036645,88.3997018 590.036645,80.6099768 C590.036645,72.8129648 590.335409,69.8034639 591.494031,66.1162788 C592.295594,63.5512805 594.01531,60.1920071 595.31967,58.6471785 C596.660466,57.0586284 599.036006,55.3316267 600.784869,54.6758033 C602.861645,53.903389 605.57967,53.604625 609.033676,53.7649374 C613.172653,53.9616844 614.783065,54.406187 617.231474,56.0165979 C619.373832,57.4302617 620.787497,59.1499765 622.011702,61.8461395 C622.959003,63.9520615 623.942739,66.2474435 624.197781,66.9469885 C624.605849,68.098323 625.728037,67.8432805 635.579969,64.396564 C641.591687,62.2906421 646.517653,60.2430156 646.525071,59.8422346 C646.539514,59.4414536 645.329883,56.6578474 643.836062,53.6483466 C642.342241,50.6461326 639.631503,46.6893312 637.802483,44.8603125 C635.944315,42.9948592 632.082241,40.3569916 629.02173,38.8558846 C625.385551,37.0778744 621.355878,35.8099491 616.998293,35.0666825 C613.391261,34.4618676 608.968094,34.0100781 607.160935,34.0683735 C605.353775,34.1266689 603.065679,34.2942682 602.060082,34.4472937 L602.060082,34.4472937 Z M431.545878,35.817236 C428.937156,36.4220509 425.497724,37.6899763 423.894599,38.6372768 C422.291474,39.5772904 419.748335,41.7050731 418.247227,43.3592055 C416.746119,45.013338 414.902525,47.5929102 414.159258,49.0940171 C413.408704,50.5951241 412.199074,53.6337727 411.455807,55.8344247 C410.158733,59.7256438 410.100437,59.7839392 409.626787,57.6561565 C409.349883,56.4538135 409.087554,51.1270698 409.043832,45.8148999 L408.956389,36.1597216 C371.486986,36.1597216 366.036361,36.3856163 365.365963,37.0705874 C364.783008,37.6681155 364.484244,40.612034 364.484244,45.6327268 C364.484244,50.8355927 364.775721,53.5827642 365.402398,54.2094399 C366.050935,54.8506895 369.009429,55.1275928 375.254329,55.1203058 L384.180821,55.105732 L384.180821,106.842914 C365.489841,106.842914 365.227511,106.886636 364.841304,108.482473 C364.622696,109.386052 364.54254,113.568748 364.659131,117.773305 L364.870452,125.424578 L437.375423,125.788925 C437.987525,123.245787 438.067682,119.063091 437.951091,114.858534 L437.73977,107.207261 L409.685082,106.842914 C410.034855,72.4340446 410.180594,70.5102958 411.506815,67.894289 C412.308378,66.3130258 414.275849,64.0832261 415.878974,62.9318917 C417.482099,61.7878441 420.600906,60.301311 422.80156,59.6309137 C425.883932,58.6836132 429.126616,58.4431446 436.828903,58.5743093 L446.848435,58.7491955 C447.380381,52.8176369 447.708293,47.7386487 447.919614,43.6288218 C448.160082,38.9797623 448.028918,36.0212699 447.577128,35.7953752 C447.176346,35.5986282 444.472895,35.2707165 441.565409,35.0812564 C438.227994,34.8553616 434.53352,35.1249779 431.545878,35.817236 L431.545878,35.817236 Z" id="Path-1" fill="#3F3F3F" fill-rule="nonzero"></path>
                <path d="M1.3035624,24.6828114 C1.07038058,25.2439048 0.968363539,28.7343429 1.07038058,32.4361018 L1.25255388,39.1765094 C42.4747272,61.1830292 55.1831363,68.0473145 56.0867158,68.6229817 C56.9902954,69.2059359 57.7262755,69.9273417 57.7189885,70.2261057 C57.7189885,70.5248697 56.6550965,71.3847271 55.3507357,72.1279936 C54.0536618,72.8712602 47.7431789,76.2742552 41.3306789,79.691824 C34.9181789,83.1093928 24.0970851,88.8587782 17.2838039,92.4730941 C10.4705226,96.080123 3.99244024,99.6434303 2.89211354,100.386697 C0.93192888,101.712918 0.888207289,101.895091 0.888207289,109.028992 C0.888207289,113.401149 1.17968456,116.315919 1.61690047,116.315919 C2.01768172,116.315919 7.01651695,113.809217 12.7294715,110.748707 C18.442426,107.688198 29.343676,101.829508 36.9585198,97.7342554 C44.5733635,93.6317155 53.9224971,88.6183096 57.7262755,86.5779701 C61.5300539,84.5449174 66.9442442,81.6228596 69.749713,80.0926049 L74.8505652,77.3017119 C75.2513465,65.3365776 75.0545993,63.2670903 74.3550539,62.6695623 C73.8231079,62.2250597 71.5933067,60.8696913 69.3853664,59.6673483 C67.177426,58.4650054 59.6427385,54.4499085 52.6254232,50.7481496 C45.6153948,47.0463906 38.8895567,43.4393617 37.687213,42.7398167 C36.4848692,42.0329848 32.7175255,39.9853583 29.3072414,38.1854873 C25.8969573,36.3856163 18.3039743,32.3850933 12.4234204,29.2881493 C4.30577831,25.0180101 1.63147433,23.9103971 1.3035624,24.6828114 L1.3035624,24.6828114 Z M772.20994,136.478847 C771.874741,136.741176 771.656133,139.532069 771.721716,142.672735 L771.845594,148.378399 L851.27315,148.378399 C851.579202,142.44684 851.557341,139.910989 851.418889,138.905393 C851.185707,137.163818 850.89423,137.061801 844.48173,136.537142 C840.801829,136.231091 823.174741,135.983336 805.307185,135.990623 C787.439628,135.990623 772.545139,136.20923 772.20994,136.478847 Z" id="Path-2" fill="#C0F45D" fill-rule="nonzero"></path>
                <path d="M693.43092,20.4928283 C693.43092,25.7029812 693.547511,27.6704515 693.685963,24.8649846 C693.824415,22.0595177 693.824415,17.7966653 693.685963,15.3919794 C693.540224,12.9872934 693.43092,15.2826755 693.43092,20.4928283 Z M222.046588,18.4670626 C223.248932,18.627375 225.544315,18.627375 227.14744,18.4743495 C228.750565,18.3140371 227.766829,18.1828724 224.961361,18.1828724 C222.155892,18.1755855 220.844244,18.3067502 222.046588,18.4670626 Z M693.474642,95.5481773 C693.474642,110.777855 693.576659,117.175777 693.69325,109.757685 C693.809841,102.339593 693.809841,89.8862349 693.69325,82.0673622 C693.576659,74.2484894 693.474642,80.3184997 693.474642,95.5481773 Z M724.640849,97.5520822 C724.553406,112.679743 724.728293,125.191397 725.027057,125.358996 C725.325821,125.519308 725.49342,117.569271 725.391403,107.688198 C725.289386,97.8071247 725.1145,85.2954709 725.005196,79.8812841 C724.888605,74.4670972 724.728293,82.4244216 724.640849,97.5520822 Z M169.580679,106.653454 C172.786929,106.791906 177.705608,106.791906 180.511077,106.653454 C183.316545,106.515003 180.69325,106.405699 174.681531,106.405699 C168.669812,106.405699 166.374429,106.522289 169.580679,106.653454 Z M218.038775,106.653454 C221.441773,106.791906 227.183875,106.791906 230.790906,106.653454 C234.397937,106.522289 231.607043,106.412986 224.597014,106.412986 C217.579699,106.412986 214.628491,106.522289 218.038775,106.653454 Z M370.33565,106.653454 C372.937085,106.799193 376.872028,106.791906 379.079969,106.653454 C381.280622,106.507716 379.152838,106.391125 374.343463,106.391125 C369.534088,106.391125 367.726929,106.515003 370.33565,106.653454 Z M416.607668,106.660741 C420.214699,106.791906 426.277426,106.791906 430.088491,106.660741 C433.89227,106.522289 430.941062,106.420273 423.530253,106.420273 C416.112156,106.420273 413.000636,106.522289 416.607668,106.660741 Z" id="Path-3" fill="#C9CDC5" fill-rule="nonzero"></path>
                <path d="M21.3061729,50.3619424 C21.2989033,50.5659764 23.5869999,51.8776233 26.3924687,53.2840002 C29.1979374,54.6903771 31.5006079,55.6741123 31.5079121,55.4773653 C31.5151817,55.2806182 29.2270851,53.9689714 26.4216164,52.5553075 C23.6161476,51.1416436 21.3134772,50.1579085 21.3061729,50.3619424 Z M846.813548,136.529855 C851.27315,136.777611 851.469898,136.865054 851.622923,138.759655 C851.746801,140.304483 851.805096,140.224327 851.89254,138.358874 L852.001844,135.990623 L842.164486,136.274813 L846.813548,136.529855 Z M851.397028,144.917108 L851.27315,148.378399 L771.481247,148.750032 C842.732866,149.06337 851.360594,148.910344 851.666645,148.196225 C851.885253,147.693428 851.943548,145.973713 851.790523,144.370589 C851.520906,141.506826 851.513619,141.514113 851.397028,144.917108 Z" id="Path-4" fill="#D2F692"></path>
                <path d="M0.319826607,31.2410458 L0.159514107,39.8031851 C5.80688627,42.6305128 7.32256808,43.1988931 7.16954252,42.9001291 C7.01651695,42.6013651 5.53726979,41.6977861 3.88313627,40.8962242 L0.880920357,39.4388388 L0.472852175,22.6789065 L0.319826607,31.2410458 Z M70.9593437,59.7766522 C70.9010482,60.0098339 71.8337755,60.702092 73.0361192,61.29962 L75.2221988,62.3926591 L75.2221988,77.6952059 C70.704301,79.9541533 69.3926533,80.7775761 69.3926533,80.9743231 C69.3926533,81.1710702 70.7844573,80.5954029 72.4895993,79.684537 L75.5865454,78.0304046 L75.5865454,62.1084689 C72.0888181,59.9661123 71.024926,59.5361836 70.9593437,59.7766522 Z M52.9970567,67.8068459 C53.7986192,68.4480955 54.782355,69.0893451 55.1831363,69.2205097 C55.5839175,69.3589614 55.2560056,70.2406795 54.4544431,71.1879801 L52.9970567,72.9076948 C55.8170993,71.1151108 56.6405226,70.3281227 56.6405226,69.992924 C56.6405226,69.6650123 55.4891874,68.7760072 54.0900965,68.0181668 C52.3412329,67.0708663 51.9987471,67.0052839 52.9970567,67.8068459 Z M1.23069308,100.160802 C0.0866447886,101.30485 -0.0809546432,102.594636 0.0283493341,109.269461 C0.101218652,113.546887 0.407269789,117.175777 0.713320925,117.343376 C1.01208513,117.503689 1.15782377,113.976816 1.04123286,109.50993 C0.829911834,101.749352 0.902781152,101.319424 2.49861922,100.117081 C3.41677263,99.4248225 3.81026695,98.8491553 3.36576411,98.8418016 C2.9285482,98.8345814 1.9666732,99.4248225 1.23069308,100.160802 L1.23069308,100.160802 Z M771.444812,136.231091 C771.248065,136.770324 771.167909,139.961998 771.2845,143.335845 L771.488534,149.471438 C841.705409,149.762915 851.134699,149.588029 851.856105,148.903057 C852.504642,148.290956 852.745111,146.199607 852.62852,142.184511 L852.46092,136.354969 L851.644784,148.742745 L771.852881,149.107091 L771.852881,135.990623 L852.373477,135.611702 C779.066943,135.291078 771.743577,135.436816 771.444812,136.231091 L771.444812,136.231091 Z" id="Path-5" fill="#F3F2D4" fill-rule="nonzero"></path>
                <path d="M240.992611,45.6327268 C240.992611,50.7627234 241.240366,54.8361157 241.539131,54.6685164 C241.837895,54.508204 242.122085,50.4639594 242.15852,45.6764483 C242.202241,40.8889372 241.954486,36.8228319 241.612,36.6333718 C241.269514,36.4511986 240.992611,40.5027301 240.992611,45.6327268 Z M160.748918,45.2683804 C160.748918,50.0777523 160.872795,51.8776233 161.011247,49.2761903 C161.156986,46.6747573 161.149699,42.7325298 161.011247,40.5318778 C160.865508,38.3312258 160.748918,40.4590085 160.748918,45.2683804 Z M409.226006,44.1753414 C409.226006,48.3798983 409.349883,50.0194569 409.495622,47.8188049 C409.641361,45.6181529 409.641361,42.1714364 409.495622,40.1675315 C409.349883,38.1636265 409.226006,39.9707844 409.226006,44.1753414 Z M211.808449,80.9743231 C211.808449,95.4024388 211.903179,101.472449 212.027057,94.4551382 C212.143648,87.4378274 212.143648,75.6402925 212.027057,68.2222007 C211.910466,60.804109 211.808449,66.5462075 211.808449,80.9743231 Z M409.99842,90.082982 C409.99842,99.5049787 410.100437,103.27232 410.231602,98.4629481 C410.35548,93.6535763 410.35548,85.9440074 410.231602,81.3386695 C410.100437,76.7333316 409.99842,80.6609853 409.99842,90.082982 Z M563.687099,80.6099768 C563.687099,83.6194777 563.810977,84.9311245 563.97129,83.5247476 C564.124315,82.1183707 564.124315,79.6626763 563.97129,78.0595523 C563.810977,76.4564283 563.687099,77.6004759 563.687099,80.6099768 Z M238.726375,116.315919 C238.726375,121.329325 238.842966,123.289509 238.981418,120.688076 C239.127156,118.086643 239.127156,113.984103 238.981418,111.579417 C238.842966,109.174731 238.726375,111.302514 238.726375,116.315919 Z" id="Path-6" fill="#9D9D9D" fill-rule="nonzero"></path>
                <path d="M162.781971,116.133746 C162.716389,121.045135 162.905849,125.191397 163.204614,125.358996 C163.503378,125.519308 163.66369,122.815858 163.554386,119.347281 C163.452369,115.878704 163.262909,111.725155 163.139031,110.122031 C163.015153,108.518908 162.854841,111.222357 162.781971,116.133746 Z" id="Path-7" fill="#747474" fill-rule="nonzero"></path>
                <path d="M296.008946,54.7486726 C294.201787,55.302479 291.578491,56.8764553 290.1794,58.2536845 C288.61271,59.7839392 287.067881,62.4072329 286.171588,65.0305267 C284.93281,68.6739902 284.721489,71.1223977 284.779784,81.3386695 C284.823506,90.8408224 285.100409,94.0470703 286.091432,96.6412164 C286.78369,98.4483743 288.226503,101.049807 289.312256,102.427036 C290.390721,103.804266 292.584088,105.52398 294.187213,106.238099 C296.103676,107.09067 298.916432,107.542459 302.385011,107.557134 C306.232511,107.56432 308.455025,107.178113 310.58281,106.114222 C312.419116,105.196069 314.306432,103.374337 315.676375,101.195546 C316.878719,99.2936578 318.270523,96.0946968 318.773321,94.0907919 C319.29798,92.0067307 319.684187,86.0897459 319.669614,80.2456304 C319.662327,72.5142008 319.334415,68.9873281 318.328818,65.6717763 C317.359656,62.4801022 316.18646,60.5126319 313.97852,58.3775622 C312.309812,56.7744383 309.635508,55.0547235 308.032383,54.5664994 C306.429258,54.0709883 303.805963,53.6920681 302.202838,53.7139289 C300.599713,53.7357897 297.816105,54.202153 296.008946,54.7486726 Z" id="Path-8" fill="#FEFDFB" fill-rule="nonzero"></path>
                <path d="M283.883491,80.6099768 C283.883491,84.4210396 284.007369,85.8929989 284.160395,83.889094 C284.306133,81.885189 284.306133,78.7736711 284.160395,76.9665132 C284.007369,75.1593553 283.883491,76.7989139 283.883491,80.6099768 Z" id="Path-9" fill="#747474" fill-rule="nonzero"></path>
            </g>
        </g>
    </g>
</svg>